<svg xmlns="http://www.w3.org/2000/svg" style="display: none;">
  <!-- arrow -->
  <symbol id="icon-arrow" viewBox="0 0 640 640">
    <path d="M566.6 342.6C579.1 330.1 579.1 309.8 566.6 297.3L406.6 137.3C394.1 124.8 373.8 124.8 361.3 137.3C348.8 149.8 348.8 170.1 361.3 182.6L466.7 288L96 288C78.3 288 64 302.3 64 320C64 337.7 78.3 352 96 352L466.7 352L361.3 457.4C348.8 469.9 348.8 490.2 361.3 502.7C373.8 515.2 394.1 515.2 406.6 502.7L566.6 342.7z"/>
  </symbol>

  <!-- git logo -->
  <symbol id="icon-github" viewBox="0 0 640 640">
    <path d="M237.9 461.4C237.9 463.4 235.6 465 232.7 465C229.4 465.3 227.1 463.7 227.1 461.4C227.1 459.4 229.4 457.8 232.3 457.8C235.3 457.5 237.9 459.1 237.9 461.4zM206.8 456.9C206.1 458.9 208.1 461.2 211.1 461.8C213.7 462.8 216.7 461.8 217.3 459.8C217.9 457.8 216 455.5 213 454.6C210.4 453.9 207.5 454.9 206.8 456.9zM251 455.2C248.1 455.9 246.1 457.8 246.4 460.1C246.7 462.1 249.3 463.4 252.3 462.7C255.2 462 257.2 460.1 256.9 458.1C256.6 456.2 253.9 454.9 251 455.2zM316.8 72C178.1 72 72 177.3 72 316C72 426.9 141.8 521.8 241.5 555.2C254.3 557.5 258.8 549.6 258.8 543.1C258.8 536.9 258.5 502.7 258.5 481.7C258.5 481.7 188.5 496.7 173.8 451.9C173.8 451.9 162.4 422.8 146 415.3C146 415.3 123.1 399.6 147.6 399.9C147.6 399.9 172.5 401.9 186.2 425.7C208.1 464.3 244.8 453.2 259.1 446.6C261.4 430.6 267.9 419.5 275.1 412.9C219.2 406.7 162.8 398.6 162.8 302.4C162.8 274.9 170.4 261.1 186.4 243.5C183.8 237 175.3 210.2 189 175.6C209.9 169.1 258 202.6 258 202.6C278 197 299.5 194.1 320.8 194.1C342.1 194.1 363.6 197 383.6 202.6C383.6 202.6 431.7 169 452.6 175.6C466.3 210.3 457.8 237 455.2 243.5C471.2 261.2 481 275 481 302.4C481 398.9 422.1 406.6 366.2 412.9C375.4 420.8 383.2 435.8 383.2 459.3C383.2 493 382.9 534.7 382.9 542.9C382.9 549.4 387.5 557.3 400.2 555C500.2 521.8 568 426.9 568 316C568 177.3 455.5 72 316.8 72zM169.2 416.9C167.9 417.9 168.2 420.2 169.9 422.1C171.5 423.7 173.8 424.4 175.1 423.1C176.4 422.1 176.1 419.8 174.4 417.9C172.8 416.3 170.5 415.6 169.2 416.9zM158.4 408.8C157.7 410.1 158.7 411.7 160.7 412.7C162.3 413.7 164.3 413.4 165 412C165.7 410.7 164.7 409.1 162.7 408.1C160.7 407.5 159.1 407.8 158.4 408.8zM190.8 444.4C189.2 445.7 189.8 448.7 192.1 450.6C194.4 452.9 197.3 453.2 198.6 451.6C199.9 450.3 199.3 447.3 197.3 445.4C195.1 443.1 192.1 442.8 190.8 444.4zM179.4 429.7C177.8 430.7 177.8 433.3 179.4 435.6C181 437.9 183.7 438.9 185 437.9C186.6 436.6 186.6 434 185 431.7C183.6 429.4 181 428.4 179.4 429.7z"/>
  </symbol>

  <!-- menu -->
  <symbol id="icon-menu" viewBox="0 0 640 640">
    <path d="M96 160C96 142.3 110.3 128 128 128L512 128C529.7 128 544 142.3 544 160C544 177.7 529.7 192 512 192L128 192C110.3 192 96 177.7 96 160zM96 320C96 302.3 110.3 288 128 288L512 288C529.7 288 544 302.3 544 320C544 337.7 529.7 352 512 352L128 352C110.3 352 96 337.7 96 320zM544 480C544 497.7 529.7 512 512 512L128 512C110.3 512 96 497.7 96 480C96 462.3 110.3 448 128 448L512 448C529.7 448 544 462.3 544 480z"/>
  </symbol>

  <!-- close -->
  <symbol id="icon-close" viewBox="0 0 640 640">
    <path d="M183.1 137.4C170.6 124.9 150.3 124.9 137.8 137.4C125.3 149.9 125.3 170.2 137.8 182.7L275.2 320L137.9 457.4C125.4 469.9 125.4 490.2 137.9 502.7C150.4 515.2 170.7 515.2 183.2 502.7L320.5 365.3L457.9 502.6C470.4 515.1 490.7 515.1 503.2 502.6C515.7 490.1 515.7 469.8 503.2 457.3L365.8 320L503.1 182.6C515.6 170.1 515.6 149.8 503.1 137.3C490.6 124.8 470.3 124.8 457.8 137.3L320.5 274.7L183.1 137.4z"/>
  </symbol>

  <!-- html -->
  <symbol id="icon-html" viewBox="0 0 640 640" fill="currentColor">
    <path d="M128 96L162.9 491.8L319.5 544L477.1 491.8L512 96L128 96zM436.2 223.9L252.4 223.9L256.5 273.3L432.1 273.3L418.5 421.7L320.6 448.7L320.6 449L319.5 449L220.8 421.7L214.8 345.9L262.5 345.9L266 384L319.5 398.5L373.2 384L379.2 321.8L212.3 321.8L199.5 176.2L440.6 176.2L436.2 223.9z"/>
  </symbol>

  <!-- css -->
  <symbol id="icon-css" viewBox="0 0 640 640">
    <path d="M128 96L162.9 491.8L320 544L477.1 491.8L512 96L128 96zM441.1 176L436.3 223.3L321 272.6L320.7 272.7L432.2 272.7L419.4 419.3L321.2 448L222.4 418.8L216 344.9L264.9 344.9L268.1 383.2L320.7 396.5L375.4 381.1L379.1 319.5L212.8 319L212.8 318.9L212.6 319L209 272.7L321.1 226L327.6 223.3L204.7 223.3L198.9 176L441.1 176z"/>
  </symbol>

  <!-- js -->
  <symbol id="icon-js" viewBox="0 0 640 640">
    <path d="M96 96L96 544L544 544L544 96L96 96zM339.8 445.4C339.8 489 314.2 508.9 276.9 508.9C243.2 508.9 223.7 491.5 213.7 470.4L248 449.7C254.6 461.4 260.6 471.3 275.1 471.3C288.9 471.3 297.7 465.9 297.7 444.8L297.7 301.7L339.8 301.7L339.8 445.4zM439.4 508.9C400.3 508.9 375 490.3 362.7 465.9L397 446.1C406 460.8 417.8 471.7 438.5 471.7C455.9 471.7 467.1 463 467.1 450.9C467.1 436.5 455.7 431.4 436.4 422.9L425.9 418.4C395.5 405.5 375.4 389.2 375.4 354.9C375.4 323.3 399.5 299.3 437 299.3C463.8 299.3 483 308.6 496.8 333L464 354C456.8 341.1 449 336 436.9 336C424.6 336 416.8 343.8 416.8 354C416.8 366.6 424.6 371.7 442.7 379.6L453.2 384.1C489 399.4 509.1 415.1 509.1 450.3C509.1 488.1 479.3 508.9 439.4 508.9z"/>
  </symbol>

    <!-- figma -->
  <symbol id="icon-figma" viewBox="0 0 640 640">
    <path d="M480 96C515.3 96 544 124.7 544 160L544 480C544 515.3 515.3 544 480 544L160 544C124.7 544 96 515.3 96 480L96 160C96 124.7 124.7 96 160 96L480 96zM269.7 160C236.7 160 209.9 186.8 209.9 219.8C209.9 240.8 220.7 259.2 237.1 269.9C220.7 280.6 209.9 299 209.9 320C209.9 341 220.7 359.5 237.1 370.1C220.7 380.8 209.9 399.2 209.9 420.2C209.9 453.3 237 480 270 480C303.2 480 330.6 453.1 330.6 419.7L330.6 364C341.2 373.8 355.4 379.8 371 379.8L372.1 379.8C405.1 379.8 431.9 353 431.9 320C431.9 299 421.1 280.5 404.7 269.9C421.1 259.2 431.9 240.8 431.9 219.8C431.9 186.8 405.1 160 372.1 160L269.7 160zM311.3 379.8L311.3 419.7C311.3 442.3 292.7 460.7 270 460.7C247.6 460.7 229.3 442.5 229.3 420.2C229.3 397.9 247.4 379.8 269.6 379.8L311.3 379.8zM311.3 279.5L311.3 360.4L269.6 360.4C247.3 360.3 229.3 342.2 229.3 319.9C229.3 297.6 247.4 279.4 269.8 279.4L311.4 279.4zM372.1 279.5C394.4 279.5 412.6 297.6 412.6 320C412.6 342.4 394.5 360.5 372.1 360.5L371 360.5C348.7 360.5 330.6 342.4 330.6 320C330.6 297.6 348.7 279.5 371 279.5L372.1 279.5zM311.3 260.2L269.7 260.2C247.4 260.2 229.2 242.1 229.2 219.8C229.2 197.5 247.3 179.3 269.7 179.3L311.3 179.3L311.3 260.2zM372.1 179.3C394.4 179.3 412.6 197.4 412.6 219.8C412.6 242.2 394.5 260.2 372.1 260.2L330.6 260.2L330.6 179.3L372.1 179.3z"/>
  </symbol>

    <!-- git skill -->
  <symbol id="icon-git" viewBox="0 0 640 640">
    <path d="M535.6 300.1L340 104.5C334.6 99 327.2 96 319.6 96C312 96 304.6 99 299.2 104.4L258.5 145L310 196.5C337.1 187.4 362.7 213.3 353.4 240.2L403.1 289.9C437.3 278.1 464.3 320.9 438.6 346.6C412.1 373.1 368.4 343.7 382.6 309.3L336.3 263L336.3 384.9C361.6 397.4 358.6 426.7 345.4 439.9C339 446.3 330.2 450 321.1 450C312 450 303.3 446.4 296.8 439.9C279.2 422.3 285.7 393 308 383.9L308 260.9C287.2 252.4 283.4 230.2 289.4 215.9L238.6 165L104.5 299.1C99 304.6 96 311.9 96 319.5C96 327.1 99 334.5 104.5 339.9L300.1 535.6C305.5 541 312.8 544 320.5 544C328.2 544 335.5 541 340.9 535.6L535.6 340.9C541 335.5 544 328.1 544 320.5C544 312.9 541 305.5 535.6 300.1z"/>
  </symbol>

      <!-- circle-arrow right -->
  <symbol id="circle-arrow-right" viewBox="0 0 640 640">
    <path d="M320 576C461.4 576 576 461.4 576 320C576 178.6 461.4 64 320 64C178.6 64 64 178.6 64 320C64 461.4 178.6 576 320 576zM361 417C351.6 426.4 336.4 426.4 327.1 417C317.8 407.6 317.7 392.4 327.1 383.1L366.1 344.1L216 344.1C202.7 344.1 192 333.4 192 320.1C192 306.8 202.7 296.1 216 296.1L366.1 296.1L327.1 257.1C317.7 247.7 317.7 232.5 327.1 223.2C336.5 213.9 351.7 213.8 361 223.2L441 303.2C450.4 312.6 450.4 327.8 441 337.1L361 417.1z"/>
  </symbol>

      <!-- circle-arrow left -->
  <symbol id="circle-arrow-left" viewBox="0 0 640 640">
    <path d="M320 576C461.4 576 576 461.4 576 320C576 178.6 461.4 64 320 64C178.6 64 64 178.6 64 320C64 461.4 178.6 576 320 576zM199 303L279 223C288.4 213.6 303.6 213.6 312.9 223C322.2 232.4 322.3 247.6 312.9 256.9L273.9 295.9L424 295.9C437.3 295.9 448 306.6 448 319.9C448 333.2 437.3 343.9 424 343.9L273.9 343.9L312.9 382.9C322.3 392.3 322.3 407.5 312.9 416.8C303.5 426.1 288.3 426.2 279 416.8L199 336.8C189.6 327.4 189.6 312.2 199 302.9z"/>
  </symbol>

    <!-- send_email left -->
  <symbol id="send_email" viewBox="0 0 640 640">
    <path d="M125.4 128C91.5 128 64 155.5 64 189.4C64 190.3 64 191.1 64.1 192L64 192L64 448C64 483.3 92.7 512 128 512L512 512C547.3 512 576 483.3 576 448L576 192L575.9 192C575.9 191.1 576 190.3 576 189.4C576 155.5 548.5 128 514.6 128L125.4 128zM528 256.3L528 448C528 456.8 520.8 464 512 464L128 464C119.2 464 112 456.8 112 448L112 256.3L266.8 373.7C298.2 397.6 341.7 397.6 373.2 373.7L528 256.3zM112 189.4C112 182 118 176 125.4 176L514.6 176C522 176 528 182 528 189.4C528 193.6 526 197.6 522.7 200.1L344.2 335.5C329.9 346.3 310.1 346.3 295.8 335.5L117.3 200.1C114 197.6 112 193.6 112 189.4z"/>
  </symbol>

</svg>

